PathFileType	4	(X/Y/Z)	 3.0Hz3min.trc
DataRate	CameraRate	NumFrames	NumMarkers	Units	OrigDataRate	OrigDataStartFrame	OrigNumFrames
200	200	8	43	m	200	375	998
Frame#	Time	C7			LSH			RSH			MAN			RASI			LASI			HIPR			HIPL			RPSI			LPSI			COX			RTHI1			RTHI2			RTHI3			RTHI4			RLKN			RMKN			RSHA1			RSHA2			RSHA3			RSHA4			RLMAL			RMMAL			RHEEL			RMET5			RMET1			RTOE			LTHI1			LTHI2			LTHI3			LTHI4			LLKN			LMKN			LSHA1			LSHA2			LSHA3			LSHA4			LLMAL			LMMAL			LHEEL			LMET5			LMET1			LTOE			
		X1	Y1	Z1	X2	Y2	Z2	X3	Y3	Z3	X4	Y4	Z4	X5	Y5	Z5	X6	Y6	Z6	X7	Y7	Z7	X8	Y8	Z8	X9	Y9	Z9	X10	Y10	Z10	X11	Y11	Z11	X12	Y12	Z12	X13	Y13	Z13	X14	Y14	Z14	X15	Y15	Z15	X16	Y16	Z16	X17	Y17	Z17	X18	Y18	Z18	X19	Y19	Z19	X20	Y20	Z20	X21	Y21	Z21	X22	Y22	Z22	X23	Y23	Z23	X24	Y24	Z24	X25	Y25	Z25	X26	Y26	Z26	X27	Y27	Z27	X28	Y28	Z28	X29	Y29	Z29	X30	Y30	Z30	X31	Y31	Z31	X32	Y32	Z32	X33	Y33	Z33	X34	Y34	Z34	X35	Y35	Z35	X36	Y36	Z36	X37	Y37	Z37	X38	Y38	Z38	X39	Y39	Z39	X40	Y40	Z40	X41	Y41	Z41	X42	Y42	Z42	X43	Y43	Z43	
375	1.8750	-0.248061	1.373118	-0.537044	-0.167272	1.361073	-0.682124	-0.180369	1.350027	-0.379614	-0.128596	1.309199	-0.529738	-0.128111	0.877808	-0.422188	-0.127472	0.883708	-0.650870	-0.189238	0.952169	-0.393164	-0.194891	0.935725	-0.683883	-0.290968	0.928568	-0.483819	-0.294416	0.923161	-0.568406	-0.296015	0.926414	-0.530604	-0.252888	0.702648	-0.362127	-0.236781	0.645839	-0.353151	-0.175420	0.660545	-0.339704	-0.183247	0.721379	-0.347379	-0.216225	0.464170	-0.354714	-0.185047	0.436133	-0.480541	-0.310074	0.346793	-0.352517	-0.318632	0.306013	-0.364905	-0.258015	0.332124	-0.336016	-0.263173	0.293229	-0.342774	-0.324084	0.103060	-0.379945	-0.286322	0.109879	-0.453566	-0.370540	0.096332	-0.433365	-0.246102	0.033891	-0.333966	-0.190646	0.041106	-0.394117	-0.169305	0.033565	-0.385928	-0.235987	0.693762	-0.717983	-0.218847	0.634912	-0.725662	-0.155223	0.648041	-0.730370	-0.165015	0.706972	-0.724470	-0.213092	0.456971	-0.726011	-0.181248	0.436257	-0.605188	-0.310123	0.308826	-0.728457	-0.319757	0.270502	-0.720518	-0.262004	0.258147	-0.737479	-0.259309	0.301434	-0.745138	-0.312559	0.105897	-0.720824	-0.285054	0.118520	-0.642333	-0.367081	0.098076	-0.663507	-0.242075	0.038122	-0.751022	-0.189771	0.045213	-0.689492	-0.167677	0.035037	-0.695756	
376	1.8800	-0.248222	1.368605	-0.537104	-0.167208	1.356976	-0.682311	-0.180425	1.345845	-0.379334	-0.128325	1.304895	-0.529620	-0.128477	0.873263	-0.421937	-0.127480	0.879088	-0.650973	-0.189671	0.947513	-0.392800	-0.195053	0.930877	-0.684083	-0.291440	0.923881	-0.483865	-0.294604	0.918233	-0.568453	-0.296297	0.921557	-0.530683	-0.253160	0.698006	-0.361614	-0.236741	0.641250	-0.352496	-0.175408	0.656292	-0.339119	-0.183534	0.717086	-0.347063	-0.215426	0.459610	-0.354115	-0.184321	0.431276	-0.479533	-0.310226	0.342866	-0.352157	-0.319008	0.302246	-0.364611	-0.258223	0.327672	-0.335969	-0.263645	0.288899	-0.342841	-0.325631	0.099902	-0.380319	-0.288430	0.106620	-0.454113	-0.372542	0.092814	-0.433376	-0.246728	0.033280	-0.333654	-0.191071	0.041102	-0.393917	-0.169491	0.033512	-0.385766	-0.236201	0.688822	-0.718003	-0.219062	0.629990	-0.725873	-0.155494	0.643194	-0.731077	-0.165301	0.702094	-0.725014	-0.212115	0.452012	-0.726728	-0.180763	0.430970	-0.606153	-0.310763	0.305176	-0.728795	-0.320873	0.267008	-0.720847	-0.263107	0.253973	-0.737394	-0.259941	0.297235	-0.745131	-0.314388	0.102835	-0.720473	-0.287747	0.115428	-0.641687	-0.369371	0.094319	-0.663480	-0.242991	0.037356	-0.751275	-0.190476	0.045272	-0.689482	-0.167966	0.034971	-0.695754	
377	1.8850	-0.248377	1.364253	-0.537165	-0.167182	1.352924	-0.682601	-0.180543	1.341710	-0.378962	-0.128065	1.300705	-0.529502	-0.128842	0.868756	-0.421651	-0.127478	0.874515	-0.651110	-0.190164	0.942812	-0.392381	-0.195245	0.926000	-0.684317	-0.291952	0.919173	-0.483931	-0.294821	0.913291	-0.568516	-0.296602	0.916678	-0.530784	-0.253483	0.693534	-0.361048	-0.236712	0.636829	-0.351789	-0.175419	0.652247	-0.338496	-0.183872	0.712992	-0.346736	-0.214733	0.455248	-0.353546	-0.183559	0.426481	-0.478481	-0.310266	0.339009	-0.351742	-0.319243	0.298577	-0.364255	-0.258308	0.323400	-0.335869	-0.263954	0.284743	-0.342871	-0.326915	0.096825	-0.380520	-0.290303	0.103444	-0.454526	-0.374353	0.089374	-0.433256	-0.247174	0.032689	-0.333350	-0.191356	0.041159	-0.393850	-0.169586	0.033503	-0.385714	-0.236469	0.683915	-0.718104	-0.219304	0.625103	-0.726130	-0.155803	0.638409	-0.731842	-0.165655	0.697277	-0.725643	-0.211199	0.447200	-0.727457	-0.180144	0.425684	-0.607224	-0.311229	0.301713	-0.729218	-0.321702	0.263637	-0.721237	-0.263911	0.250108	-0.737342	-0.260349	0.293341	-0.745140	-0.315861	0.099838	-0.720195	-0.289970	0.112382	-0.641181	-0.371379	0.090536	-0.663522	-0.243549	0.036682	-0.751657	-0.190935	0.045322	-0.689467	-0.168064	0.034918	-0.695804	
378	1.8900	-0.248525	1.360146	-0.537216	-0.167197	1.348961	-0.682993	-0.180730	1.337682	-0.378495	-0.127786	1.296672	-0.529387	-0.129202	0.864352	-0.421331	-0.127477	0.870040	-0.651271	-0.190722	0.938122	-0.391915	-0.195478	0.921133	-0.684591	-0.292512	0.914488	-0.484031	-0.295075	0.908391	-0.568600	-0.296946	0.911832	-0.530913	-0.253825	0.689328	-0.360495	-0.236703	0.632690	-0.351089	-0.175466	0.648503	-0.337881	-0.184260	0.709179	-0.346408	-0.214205	0.451222	-0.353048	-0.182786	0.421868	-0.477433	-0.310198	0.335305	-0.351208	-0.319312	0.295073	-0.363801	-0.258245	0.319376	-0.335712	-0.264061	0.280829	-0.342851	-0.327992	0.093942	-0.380571	-0.291961	0.100445	-0.454830	-0.375975	0.086122	-0.433034	-0.247600	0.032164	-0.332967	-0.191634	0.041233	-0.393806	-0.169687	0.033490	-0.385653	-0.236807	0.679183	-0.718289	-0.219582	0.620386	-0.726414	-0.156147	0.633826	-0.732599	-0.166082	0.692662	-0.726312	-0.210432	0.442720	-0.728158	-0.179381	0.420514	-0.608355	-0.311445	0.298435	-0.729756	-0.322185	0.260390	-0.721773	-0.264325	0.246565	-0.737343	-0.260455	0.289773	-0.745168	-0.317049	0.096971	-0.719982	-0.291757	0.109414	-0.640806	-0.373133	0.086841	-0.663624	-0.244057	0.036103	-0.752076	-0.191312	0.045376	-0.689457	-0.168081	0.034887	-0.695860	
379	1.8950	-0.248665	1.356346	-0.537254	-0.167229	1.345149	-0.683461	-0.180977	1.333816	-0.377946	-0.127477	1.292846	-0.529275	-0.129542	0.860126	-0.420978	-0.127484	0.865736	-0.651454	-0.191354	0.933501	-0.391406	-0.195759	0.916331	-0.684904	-0.293128	0.909880	-0.484163	-0.295378	0.903613	-0.568706	-0.297349	0.907091	-0.531075	-0.254185	0.685509	-0.359981	-0.236728	0.628930	-0.350470	-0.175561	0.645130	-0.337321	-0.184685	0.705734	-0.346083	-0.213866	0.447623	-0.352639	-0.182040	0.417585	-0.476446	-0.310039	0.331824	-0.350544	-0.319232	0.291769	-0.363312	-0.258027	0.315676	-0.335493	-0.263977	0.277221	-0.342793	-0.328915	0.091331	-0.380504	-0.293427	0.097703	-0.455055	-0.377411	0.083149	-0.432752	-0.247961	0.031760	-0.332654	-0.191921	0.041310	-0.393818	-0.169805	0.033489	-0.385647	-0.237214	0.674780	-0.718528	-0.219888	0.616020	-0.726709	-0.156529	0.629602	-0.733284	-0.166572	0.688416	-0.726964	-0.209877	0.438731	-0.728779	-0.178464	0.415612	-0.609488	-0.311406	0.295346	-0.730390	-0.322327	0.257282	-0.722417	-0.264368	0.243310	-0.737375	-0.260266	0.286489	-0.745210	-0.318043	0.094321	-0.719827	-0.293186	0.106605	-0.640536	-0.374646	0.083438	-0.663746	-0.244550	0.035606	-0.752493	-0.191693	0.045464	-0.689448	-0.168122	0.034863	-0.695906	
380	1.9000	-0.248792	1.352904	-0.537276	-0.167281	1.341547	-0.683998	-0.181278	1.330169	-0.377329	-0.127127	1.289277	-0.529159	-0.129850	0.856156	-0.420589	-0.127510	0.861684	-0.651659	-0.192075	0.929025	-0.390864	-0.196102	0.911661	-0.685257	-0.293806	0.905416	-0.484328	-0.295737	0.899050	-0.568830	-0.297815	0.902548	-0.531263	-0.254550	0.682169	-0.359547	-0.236800	0.625640	-0.349972	-0.175714	0.642188	-0.336864	-0.185124	0.702724	-0.345770	-0.213695	0.444521	-0.352341	-0.181383	0.413808	-0.475585	-0.309807	0.328649	-0.349792	-0.319028	0.288746	-0.362818	-0.257681	0.312363	-0.335234	-0.263733	0.273986	-0.342722	-0.329679	0.089102	-0.380302	-0.294712	0.095318	-0.455233	-0.378652	0.080528	-0.432447	-0.248200	0.031389	-0.332281	-0.192212	0.041393	-0.393855	-0.169941	0.033498	-0.385682	-0.237671	0.670893	-0.718786	-0.220221	0.612174	-0.726980	-0.156932	0.625907	-0.733867	-0.167102	0.684701	-0.727543	-0.209575	0.435357	-0.729271	-0.177467	0.411174	-0.610557	-0.311160	0.292482	-0.731057	-0.322219	0.254377	-0.723093	-0.264147	0.240331	-0.737415	-0.259863	0.283482	-0.745256	-0.318903	0.091949	-0.719715	-0.294349	0.104054	-0.640325	-0.375931	0.080424	-0.663879	-0.244938	0.035145	-0.752807	-0.192070	0.045557	-0.689430	-0.168190	0.034840	-0.695944	
381	1.9050	-0.248900	1.349877	-0.537297	-0.167331	1.338230	-0.684580	-0.181612	1.326804	-0.376665	-0.126736	1.286025	-0.529034	-0.130122	0.852525	-0.420158	-0.127560	0.857982	-0.651889	-0.192902	0.924784	-0.390305	-0.196512	0.907214	-0.685632	-0.294538	0.901213	-0.484537	-0.296166	0.894832	-0.568965	-0.298343	0.898334	-0.531483	-0.254901	0.679379	-0.359215	-0.236918	0.622892	-0.349641	-0.175917	0.639716	-0.336532	-0.185551	0.700195	-0.345476	-0.213635	0.441957	-0.352144	-0.180853	0.410687	-0.474920	-0.309535	0.325879	-0.349018	-0.318773	0.286092	-0.362315	-0.257251	0.309509	-0.334948	-0.263391	0.271181	-0.342659	-0.330297	0.087249	-0.380096	-0.295795	0.093348	-0.455378	-0.379696	0.078303	-0.432169	-0.248424	0.031127	-0.332005	-0.192496	0.041462	-0.393910	-0.170075	0.033504	-0.385727	-0.238137	0.667654	-0.719000	-0.220557	0.608984	-0.727188	-0.157328	0.622865	-0.734308	-0.167633	0.681650	-0.728004	-0.209515	0.432648	-0.729610	-0.176415	0.407389	-0.611499	-0.310812	0.289895	-0.731674	-0.321987	0.251739	-0.723718	-0.263804	0.237666	-0.737445	-0.259365	0.280791	-0.745294	-0.319655	0.089910	-0.719620	-0.295284	0.101856	-0.640150	-0.376995	0.077862	-0.664005	-0.245250	0.034807	-0.753066	-0.192404	0.045643	-0.689426	-0.168243	0.034827	-0.695974	
382	1.9100	-0.248981	1.347303	-0.537319	-0.167369	1.335263	-0.685181	-0.181941	1.323779	-0.375983	-0.126249	1.283064	-0.528925	-0.130356	0.849334	-0.419686	-0.127634	0.854741	-0.652142	-0.193830	0.920899	-0.389753	-0.197006	0.903095	-0.686013	-0.295310	0.897416	-0.484798	-0.296674	0.891106	-0.569111	-0.298917	0.894587	-0.531737	-0.255212	0.677173	-0.359014	-0.237068	0.620712	-0.349487	-0.176145	0.637729	-0.336328	-0.185931	0.698173	-0.345218	-0.213612	0.439935	-0.352034	-0.180505	0.408328	-0.474509	-0.309256	0.323599	-0.348283	-0.318490	0.283881	-0.361865	-0.256786	0.307163	-0.334686	-0.263000	0.268867	-0.342621	-0.330784	0.085755	-0.379951	-0.296658	0.091804	-0.455498	-0.380533	0.076496	-0.431937	-0.248590	0.030942	-0.331776	-0.192734	0.041514	-0.393979	-0.170187	0.033514	-0.385789	-0.238567	0.665144	-0.719128	-0.220856	0.606521	-0.727308	-0.157686	0.620541	-0.734622	-0.168116	0.679319	-0.728330	-0.209625	0.430580	-0.729797	-0.175353	0.404408	-0.612275	-0.310461	0.287669	-0.732165	-0.321741	0.249464	-0.724210	-0.263472	0.235372	-0.737456	-0.258907	0.278480	-0.745309	-0.320292	0.088255	-0.719547	-0.296032	0.100076	-0.639998	-0.377839	0.075809	-0.664099	-0.245466	0.034534	-0.753267	-0.192661	0.045697	-0.689410	-0.168279	0.034815	-0.695987	
